<mxfile host="app.diagrams.net" modified="2023-01-21T04:00:51.758Z" agent="5.0 (Windows NT 10.0; Win64; x64) AppleWebKit/537.36 (KHTML, like Gecko) Chrome/109.0.0.0 Safari/537.36 Edg/109.0.1518.61" etag="hYjOeFAgqiRaMJZNptsH" version="20.8.10" type="github">
  <diagram id="4LuqVQnpE65EttmVQqXr" name="Page-1">
    <mxGraphModel dx="1516" dy="861" grid="1" gridSize="10" guides="1" tooltips="1" connect="1" arrows="1" fold="1" page="1" pageScale="1" pageWidth="850" pageHeight="1100" math="0" shadow="0">
      <root>
        <mxCell id="0" />
        <mxCell id="1" parent="0" />
        <mxCell id="v9NvR37lFsEMT2iOQ36E-4" value="" style="rounded=0;whiteSpace=wrap;html=1;fillColor=#ffe6cc;strokeColor=#d79b00;" parent="1" vertex="1">
          <mxGeometry x="257.5" width="370" height="660" as="geometry" />
        </mxCell>
        <mxCell id="v9NvR37lFsEMT2iOQ36E-5" value="Login" style="ellipse;whiteSpace=wrap;html=1;" parent="1" vertex="1">
          <mxGeometry x="310" y="110" width="80" height="60" as="geometry" />
        </mxCell>
        <mxCell id="v9NvR37lFsEMT2iOQ36E-10" style="edgeStyle=orthogonalEdgeStyle;rounded=0;orthogonalLoop=1;jettySize=auto;html=1;entryX=0;entryY=0.5;entryDx=0;entryDy=0;" parent="1" source="v9NvR37lFsEMT2iOQ36E-8" target="v9NvR37lFsEMT2iOQ36E-5" edge="1">
          <mxGeometry relative="1" as="geometry">
            <Array as="points">
              <mxPoint x="195" y="150" />
            </Array>
          </mxGeometry>
        </mxCell>
        <mxCell id="v9NvR37lFsEMT2iOQ36E-19" style="edgeStyle=orthogonalEdgeStyle;rounded=0;orthogonalLoop=1;jettySize=auto;html=1;" parent="1" source="v9NvR37lFsEMT2iOQ36E-8" target="v9NvR37lFsEMT2iOQ36E-18" edge="1">
          <mxGeometry relative="1" as="geometry">
            <Array as="points">
              <mxPoint x="310" y="270" />
              <mxPoint x="310" y="180" />
            </Array>
          </mxGeometry>
        </mxCell>
        <mxCell id="v9NvR37lFsEMT2iOQ36E-25" style="edgeStyle=orthogonalEdgeStyle;rounded=0;orthogonalLoop=1;jettySize=auto;html=1;entryX=0;entryY=0.5;entryDx=0;entryDy=0;" parent="1" source="v9NvR37lFsEMT2iOQ36E-8" target="v9NvR37lFsEMT2iOQ36E-24" edge="1">
          <mxGeometry relative="1" as="geometry">
            <Array as="points">
              <mxPoint x="290" y="270" />
              <mxPoint x="290" y="510" />
            </Array>
          </mxGeometry>
        </mxCell>
        <mxCell id="v9NvR37lFsEMT2iOQ36E-27" style="edgeStyle=orthogonalEdgeStyle;rounded=0;orthogonalLoop=1;jettySize=auto;html=1;entryX=0;entryY=0.5;entryDx=0;entryDy=0;" parent="1" target="v9NvR37lFsEMT2iOQ36E-26" edge="1">
          <mxGeometry relative="1" as="geometry">
            <Array as="points">
              <mxPoint x="260" y="268" />
              <mxPoint x="260" y="430" />
            </Array>
            <mxPoint x="210" y="268" as="sourcePoint" />
            <mxPoint x="395" y="478" as="targetPoint" />
          </mxGeometry>
        </mxCell>
        <mxCell id="v9NvR37lFsEMT2iOQ36E-28" style="edgeStyle=orthogonalEdgeStyle;rounded=0;orthogonalLoop=1;jettySize=auto;html=1;entryX=0;entryY=0.5;entryDx=0;entryDy=0;" parent="1" source="v9NvR37lFsEMT2iOQ36E-8" target="v9NvR37lFsEMT2iOQ36E-15" edge="1">
          <mxGeometry relative="1" as="geometry">
            <Array as="points">
              <mxPoint x="230" y="270" />
              <mxPoint x="230" y="600" />
            </Array>
          </mxGeometry>
        </mxCell>
        <mxCell id="v9NvR37lFsEMT2iOQ36E-8" value="User&lt;br&gt;" style="shape=umlActor;verticalLabelPosition=bottom;verticalAlign=top;html=1;outlineConnect=0;" parent="1" vertex="1">
          <mxGeometry x="180" y="240" width="30" height="60" as="geometry" />
        </mxCell>
        <mxCell id="v9NvR37lFsEMT2iOQ36E-17" style="edgeStyle=orthogonalEdgeStyle;rounded=0;orthogonalLoop=1;jettySize=auto;html=1;" parent="1" source="v9NvR37lFsEMT2iOQ36E-11" target="v9NvR37lFsEMT2iOQ36E-5" edge="1">
          <mxGeometry relative="1" as="geometry">
            <Array as="points">
              <mxPoint x="730" y="370" />
              <mxPoint x="730" y="70" />
              <mxPoint x="350" y="70" />
            </Array>
          </mxGeometry>
        </mxCell>
        <mxCell id="v9NvR37lFsEMT2iOQ36E-21" style="edgeStyle=orthogonalEdgeStyle;rounded=0;orthogonalLoop=1;jettySize=auto;html=1;" parent="1" source="v9NvR37lFsEMT2iOQ36E-11" target="v9NvR37lFsEMT2iOQ36E-20" edge="1">
          <mxGeometry relative="1" as="geometry" />
        </mxCell>
        <mxCell id="v9NvR37lFsEMT2iOQ36E-30" style="edgeStyle=orthogonalEdgeStyle;rounded=0;orthogonalLoop=1;jettySize=auto;html=1;entryX=1;entryY=0.5;entryDx=0;entryDy=0;" parent="1" source="v9NvR37lFsEMT2iOQ36E-11" target="v9NvR37lFsEMT2iOQ36E-15" edge="1">
          <mxGeometry relative="1" as="geometry">
            <Array as="points">
              <mxPoint x="650" y="370" />
              <mxPoint x="650" y="600" />
            </Array>
          </mxGeometry>
        </mxCell>
        <mxCell id="v9NvR37lFsEMT2iOQ36E-11" value="Admin" style="shape=umlActor;verticalLabelPosition=bottom;verticalAlign=top;html=1;outlineConnect=0;" parent="1" vertex="1">
          <mxGeometry x="670" y="340" width="30" height="60" as="geometry" />
        </mxCell>
        <mxCell id="v9NvR37lFsEMT2iOQ36E-16" style="edgeStyle=orthogonalEdgeStyle;rounded=0;orthogonalLoop=1;jettySize=auto;html=1;entryX=1;entryY=0;entryDx=0;entryDy=0;" parent="1" source="v9NvR37lFsEMT2iOQ36E-12" target="v9NvR37lFsEMT2iOQ36E-5" edge="1">
          <mxGeometry relative="1" as="geometry">
            <Array as="points">
              <mxPoint x="685" y="90" />
              <mxPoint x="430" y="90" />
              <mxPoint x="430" y="119" />
            </Array>
          </mxGeometry>
        </mxCell>
        <mxCell id="v9NvR37lFsEMT2iOQ36E-23" style="edgeStyle=orthogonalEdgeStyle;rounded=0;orthogonalLoop=1;jettySize=auto;html=1;" parent="1" source="v9NvR37lFsEMT2iOQ36E-12" target="v9NvR37lFsEMT2iOQ36E-22" edge="1">
          <mxGeometry relative="1" as="geometry" />
        </mxCell>
        <mxCell id="v9NvR37lFsEMT2iOQ36E-29" style="edgeStyle=orthogonalEdgeStyle;rounded=0;orthogonalLoop=1;jettySize=auto;html=1;entryX=1;entryY=1;entryDx=0;entryDy=0;" parent="1" source="v9NvR37lFsEMT2iOQ36E-12" target="v9NvR37lFsEMT2iOQ36E-15" edge="1">
          <mxGeometry relative="1" as="geometry">
            <Array as="points">
              <mxPoint x="750" y="245" />
              <mxPoint x="750" y="621" />
            </Array>
          </mxGeometry>
        </mxCell>
        <mxCell id="v9NvR37lFsEMT2iOQ36E-12" value="Resepsionis" style="shape=umlActor;verticalLabelPosition=bottom;verticalAlign=top;html=1;outlineConnect=0;" parent="1" vertex="1">
          <mxGeometry x="670" y="215" width="30" height="60" as="geometry" />
        </mxCell>
        <mxCell id="v9NvR37lFsEMT2iOQ36E-15" value="Logout" style="ellipse;whiteSpace=wrap;html=1;" parent="1" vertex="1">
          <mxGeometry x="402.5" y="570" width="75" height="60" as="geometry" />
        </mxCell>
        <mxCell id="v9NvR37lFsEMT2iOQ36E-37" value="Include" style="edgeStyle=orthogonalEdgeStyle;rounded=0;orthogonalLoop=1;jettySize=auto;html=1;entryX=1;entryY=0.5;entryDx=0;entryDy=0;endArrow=open;endFill=0;dashed=1;" parent="1" source="v9NvR37lFsEMT2iOQ36E-18" target="v9NvR37lFsEMT2iOQ36E-5" edge="1">
          <mxGeometry relative="1" as="geometry">
            <Array as="points">
              <mxPoint x="420" y="135" />
              <mxPoint x="420" y="140" />
            </Array>
          </mxGeometry>
        </mxCell>
        <mxCell id="v9NvR37lFsEMT2iOQ36E-18" value="Register" style="ellipse;whiteSpace=wrap;html=1;" parent="1" vertex="1">
          <mxGeometry x="450" y="110" width="80" height="70" as="geometry" />
        </mxCell>
        <mxCell id="v9NvR37lFsEMT2iOQ36E-20" value="CRUD kamar hotel" style="ellipse;whiteSpace=wrap;html=1;" parent="1" vertex="1">
          <mxGeometry x="520" y="340" width="90" height="60" as="geometry" />
        </mxCell>
        <mxCell id="RJeyTBEpNdgqxDI5zY_a-3" value="" style="edgeStyle=orthogonalEdgeStyle;rounded=0;orthogonalLoop=1;jettySize=auto;html=1;dashed=1;dashPattern=8 8;" parent="1" source="v9NvR37lFsEMT2iOQ36E-22" target="RJeyTBEpNdgqxDI5zY_a-1" edge="1">
          <mxGeometry relative="1" as="geometry" />
        </mxCell>
        <mxCell id="v9NvR37lFsEMT2iOQ36E-22" value="CRUD reservasi" style="ellipse;whiteSpace=wrap;html=1;" parent="1" vertex="1">
          <mxGeometry x="510" y="250" width="100" height="70" as="geometry" />
        </mxCell>
        <mxCell id="v9NvR37lFsEMT2iOQ36E-24" value="Checkin" style="ellipse;whiteSpace=wrap;html=1;" parent="1" vertex="1">
          <mxGeometry x="390" y="480" width="90" height="60" as="geometry" />
        </mxCell>
        <mxCell id="v9NvR37lFsEMT2iOQ36E-26" value="Pesan kamar" style="ellipse;whiteSpace=wrap;html=1;" parent="1" vertex="1">
          <mxGeometry x="382.5" y="400" width="95" height="60" as="geometry" />
        </mxCell>
        <mxCell id="v9NvR37lFsEMT2iOQ36E-33" value="System" style="rounded=0;whiteSpace=wrap;html=1;fillColor=#ffe6cc;strokeColor=none;" parent="1" vertex="1">
          <mxGeometry x="382.5" y="10" width="120" height="60" as="geometry" />
        </mxCell>
        <mxCell id="v9NvR37lFsEMT2iOQ36E-34" value="Mengakses data reservasi" style="ellipse;whiteSpace=wrap;html=1;" parent="1" vertex="1">
          <mxGeometry x="335" y="295" width="100" height="70" as="geometry" />
        </mxCell>
        <mxCell id="RJeyTBEpNdgqxDI5zY_a-2" value="Extend" style="edgeStyle=orthogonalEdgeStyle;orthogonalLoop=1;jettySize=auto;html=1;dashed=1;dashPattern=8 8;endArrow=open;endFill=0;rounded=0;" parent="1" source="RJeyTBEpNdgqxDI5zY_a-1" target="v9NvR37lFsEMT2iOQ36E-22" edge="1">
          <mxGeometry x="0.0105" relative="1" as="geometry">
            <mxPoint as="offset" />
          </mxGeometry>
        </mxCell>
        <mxCell id="RJeyTBEpNdgqxDI5zY_a-1" value="Check status checkin" style="ellipse;whiteSpace=wrap;html=1;" parent="1" vertex="1">
          <mxGeometry x="345" y="210" width="80" height="70" as="geometry" />
        </mxCell>
        <mxCell id="z7lA3NIGI3LSWfMesED--1" value="Extend" style="edgeStyle=orthogonalEdgeStyle;orthogonalLoop=1;jettySize=auto;html=1;dashed=1;dashPattern=8 8;endArrow=open;endFill=0;rounded=0;exitX=1;exitY=0.5;exitDx=0;exitDy=0;" edge="1" parent="1" source="v9NvR37lFsEMT2iOQ36E-34">
          <mxGeometry x="0.04" relative="1" as="geometry">
            <mxPoint as="offset" />
            <mxPoint x="435" y="255" as="sourcePoint" />
            <mxPoint x="520" y="295" as="targetPoint" />
          </mxGeometry>
        </mxCell>
      </root>
    </mxGraphModel>
  </diagram>
</mxfile>
